<?xml version="1.0" encoding="iso-8859-1"?>
<!-- Generator: Adobe Illustrator 19.0.0, SVG Export Plug-In . SVG Version: 6.00 Build 0)  -->
<svg version="1.1" id="Capa_1" xmlns="http://www.w3.org/2000/svg" xmlns:xlink="http://www.w3.org/1999/xlink" x="0px" y="0px"
	 viewBox="0 0 512.007 512.007" style="enable-background:new 0 0 512.007 512.007;" xml:space="preserve">
<g>
	<g>
		<g>
			<path d="M498.017,424.169l-8.309-8.315c-0.013-0.013-0.013-0.033-0.026-0.046c-0.013-0.013-0.033-0.013-0.046-0.026
				L382.913,309.05c16.174-29.23,25.443-62.789,25.443-98.494c0-112.582-91.595-204.178-204.178-204.178S0,97.974,0,210.557
				s91.595,204.171,204.178,204.171c42.332,0,81.691-12.963,114.337-35.109l112.02,112.026c9.017,9.017,21,13.983,33.745,13.983
				s24.728-4.965,33.732-13.976c9.03-9.017,14.002-21.007,13.996-33.758C512.007,445.149,507.035,433.172,498.017,424.169z
				 M204.178,393.403c-100.824,0-182.853-82.022-182.853-182.846S103.353,27.704,204.178,27.704s182.853,82.029,182.853,182.853
				S305.002,393.403,204.178,393.403z M429.726,460.687l-94.118-94.124c13.506-11.394,25.469-24.529,35.645-39.015l95.799,95.813
				L429.726,460.687z M482.929,476.57c-9.964,9.977-27.349,9.971-37.32,0l-0.808-0.808l37.327-37.327l0.814,0.814
				c4.985,4.985,7.739,11.606,7.739,18.65C490.682,464.951,487.934,471.578,482.929,476.57z"/>
			<path d="M204.178,63.455c-81.108,0-147.095,65.994-147.095,147.102s65.987,147.102,147.095,147.102
				c81.115,0,147.109-65.987,147.109-147.095S285.293,63.455,204.178,63.455z M204.178,336.334
				c-69.35,0-125.771-56.42-125.771-125.777s56.42-125.777,125.771-125.777c69.357,0,125.784,56.42,125.784,125.777
				C329.961,279.907,273.535,336.334,204.178,336.334z"/>
		</g>
	</g>
</g>
<g>
</g>
<g>
</g>
<g>
</g>
<g>
</g>
<g>
</g>
<g>
</g>
<g>
</g>
<g>
</g>
<g>
</g>
<g>
</g>
<g>
</g>
<g>
</g>
<g>
</g>
<g>
</g>
<g>
</g>
</svg>
